<svg width="640" height="420" viewBox="0 0 640 420" fill="none" xmlns="http://www.w3.org/2000/svg">
  <rect width="640" height="420" rx="36" fill="#0F141D"/>
  <rect x="56" y="56" width="528" height="308" rx="28" fill="#131A24" stroke="#242D3A"/>
  <path d="M132 120H266C320.124 120 364 163.876 364 218C364 272.124 320.124 316 266 316H132V120Z" fill="#4F6BFF"/>
  <path d="M186 170H258C284.51 170 306 191.49 306 218C306 244.51 284.51 266 258 266H186V170Z" fill="#E9EDFF"/>
  <path d="M406 120H462C526.065 120 578 171.935 578 236C578 300.065 526.065 352 462 352H406V120Z" fill="#27313F"/>
  <path d="M454 166H464C502.66 166 534 197.34 534 236C534 274.66 502.66 306 464 306H454V166Z" fill="#4F6BFF"/>
  <path d="M406 120H454V352H406V120Z" fill="#E9EDFF"/>
  <path d="M454 120H462C526.065 120 578 171.935 578 236C578 300.065 526.065 352 462 352H454V306H462C500.66 306 532 274.66 532 236C532 197.34 500.66 166 462 166H454V120Z" fill="#889DFF"/>
</svg>
