<svg width="1600" height="900" viewBox="0 0 1600 900" fill="none" xmlns="http://www.w3.org/2000/svg">
  <defs>
    <linearGradient id="bg" x1="220" y1="40" x2="1380" y2="860" gradientUnits="userSpaceOnUse">
      <stop stop-color="#F8FBFF"/>
      <stop offset="0.52" stop-color="#EEF4FF"/>
      <stop offset="1" stop-color="#E6EDF9"/>
    </linearGradient>
    <linearGradient id="panel" x1="270" y1="130" x2="1180" y2="700" gradientUnits="userSpaceOnUse">
      <stop stop-color="#FFFFFF"/>
      <stop offset="1" stop-color="#F6F9FD"/>
    </linearGradient>
    <linearGradient id="accent" x1="1020" y1="120" x2="1325" y2="460" gradientUnits="userSpaceOnUse">
      <stop stop-color="#2563EB"/>
      <stop offset="1" stop-color="#0F766E"/>
    </linearGradient>
    <filter id="shadow" x="180" y="70" width="1240" height="760" filterUnits="userSpaceOnUse" color-interpolation-filters="sRGB">
      <feFlood flood-opacity="0" result="BackgroundImageFix"/>
      <feColorMatrix in="SourceAlpha" type="matrix" values="0 0 0 0 0 0 0 0 0 0 0 0 0 0 0 0 0 0 127 0" result="hardAlpha"/>
      <feOffset dy="24"/>
      <feGaussianBlur stdDeviation="30"/>
      <feColorMatrix type="matrix" values="0 0 0 0 0.129412 0 0 0 0 0.180392 0 0 0 0 0.270588 0 0 0 0.14 0"/>
      <feBlend mode="normal" in2="BackgroundImageFix" result="effect1_dropShadow_1_1"/>
      <feBlend mode="normal" in="SourceGraphic" in2="effect1_dropShadow_1_1" result="shape"/>
    </filter>
  </defs>

  <rect width="1600" height="900" fill="url(#bg)"/>
  <circle cx="234" cy="100" r="220" fill="#DCEBFF"/>
  <circle cx="1450" cy="150" r="200" fill="#D9F6EE"/>
  <circle cx="1380" cy="820" r="240" fill="#E8EEFB"/>

  <g filter="url(#shadow)">
    <rect x="240" y="110" width="1120" height="660" rx="30" fill="url(#panel)"/>
    <rect x="240.75" y="110.75" width="1118.5" height="658.5" rx="29.25" stroke="#D8E0EC" stroke-width="1.5"/>
  </g>

  <rect x="310" y="170" width="184" height="44" rx="22" fill="#E8F0FF"/>
  <text x="342" y="198" fill="#1D4ED8" font-family="Inter, Arial, sans-serif" font-size="22" font-weight="700">ProtocolDiff</text>

  <text x="310" y="300" fill="#0F172A" font-family="Inter, Arial, sans-serif" font-size="84" font-weight="700">
    Spot protocol
  </text>
  <text x="310" y="392" fill="#0F172A" font-family="Inter, Arial, sans-serif" font-size="84" font-weight="700">
    changes fast.
  </text>
  <text x="310" y="456" fill="#475569" font-family="Inter, Arial, sans-serif" font-size="34" font-weight="500">
    Compare two snapshots, generate a structured diff,
  </text>
  <text x="310" y="504" fill="#475569" font-family="Inter, Arial, sans-serif" font-size="34" font-weight="500">
    then hire an Olas agent for a change brief with receipts.
  </text>

  <rect x="310" y="584" width="260" height="70" rx="18" fill="#0F172A"/>
  <text x="350" y="628" fill="#F8FAFC" font-family="Inter, Arial, sans-serif" font-size="28" font-weight="700">
    Demo + Olas mode
  </text>

  <rect x="590" y="584" width="220" height="70" rx="18" fill="#EAF1FC"/>
  <text x="640" y="628" fill="#334155" font-family="Inter, Arial, sans-serif" font-size="28" font-weight="700">
    Receipts
  </text>

  <rect x="830" y="584" width="260" height="70" rx="18" fill="#E8F7F3"/>
  <text x="876" y="628" fill="#0F766E" font-family="Inter, Arial, sans-serif" font-size="28" font-weight="700">
    Batch evidence
  </text>

  <g>
    <rect x="1010" y="190" width="250" height="320" rx="26" fill="url(#accent)"/>
    <rect x="1048" y="240" width="174" height="34" rx="10" fill="#E8F0FF" fill-opacity="0.26"/>
    <rect x="1048" y="294" width="126" height="18" rx="9" fill="#E8F0FF" fill-opacity="0.34"/>
    <rect x="1048" y="336" width="174" height="18" rx="9" fill="#E8F0FF" fill-opacity="0.34"/>
    <rect x="1048" y="378" width="146" height="18" rx="9" fill="#E8F0FF" fill-opacity="0.34"/>
    <rect x="1048" y="432" width="114" height="40" rx="12" fill="#F8FAFC"/>
    <text x="1076" y="458" fill="#0F172A" font-family="Inter, Arial, sans-serif" font-size="22" font-weight="700">
      Analyze
    </text>
  </g>

  <g>
    <rect x="930" y="540" width="330" height="150" rx="24" fill="#FFFFFF"/>
    <rect x="930.75" y="540.75" width="328.5" height="148.5" rx="23.25" stroke="#D8E0EC" stroke-width="1.5"/>
    <text x="968" y="590" fill="#0F172A" font-family="Inter, Arial, sans-serif" font-size="28" font-weight="700">
      Change brief
    </text>
    <circle cx="972" cy="631" r="8" fill="#DC2626"/>
    <text x="992" y="638" fill="#334155" font-family="Inter, Arial, sans-serif" font-size="22" font-weight="600">
      Breaking changes
    </text>
    <circle cx="972" cy="668" r="8" fill="#0F766E"/>
    <text x="992" y="675" fill="#334155" font-family="Inter, Arial, sans-serif" font-size="22" font-weight="600">
      Migration tasks
    </text>
  </g>
</svg>
